<svg xmlns="http://www.w3.org/2000/svg" viewBox="0 0 120 160" fill="none" stroke="currentColor" stroke-width="1.5" stroke-linecap="round" stroke-linejoin="round">
  <!-- Lid rim -->
  <ellipse cx="60" cy="30" rx="28" ry="5" />
  <path d="M32 30 L32 36 L88 36 L88 30" />
  <!-- Neck -->
  <path d="M35 36 L34 48" />
  <path d="M85 36 L86 48" />
  <!-- Body — wider belly -->
  <path d="M34 48 Q28 55 28 85 Q28 120 35 128 L85 128 Q92 120 92 85 Q92 55 86 48" />
  <!-- Base -->
  <path d="M35 128 Q35 135 60 135 Q85 135 85 128" />
  <!-- Handle -->
  <path d="M86 52 Q106 58 106 85 Q106 112 86 118" />
</svg>
